ModelForces
version=1
nRows=4
nColumns=157
inDegrees=no

This file contains the forces exerted on a model during a simulation.

A force is a generalized force, meaning that it can be either a force (N) or a torque (Nm).

Units are S.I. units (second, meters, Newtons, ...)
Angles are in degrees.

endheader
time	glut_med1_r	glut_med2_r	glut_med3_r	glut_min1_r	glut_min2_r	glut_min3_r	semimem_r	semiten_r	bifemlh_r	bifemsh_r	sar_r	add_long_r	add_brev_r	add_mag1_r	add_mag2_r	add_mag3_r	tfl_r	pect_r	grac_r	glut_max1_r	glut_max2_r	glut_max3_r	iliacus_r	psoas_r	quad_fem_r	gem_r	peri_r	rect_fem_r	vas_med_r	vas_int_r	vas_lat_r	med_gas_r	lat_gas_r	soleus_r	tib_post_r	flex_dig_r	flex_hal_r	tib_ant_r	per_brev_r	per_long_r	per_tert_r	ext_dig_r	ext_hal_r	glut_med1_l	glut_med2_l	glut_med3_l	glut_min1_l	glut_min2_l	glut_min3_l	semimem_l	semiten_l	bifemlh_l	bifemsh_l	sar_l	add_long_l	add_brev_l	add_mag1_l	add_mag2_l	add_mag3_l	tfl_l	pect_l	grac_l	glut_max1_l	glut_max2_l	glut_max3_l	iliacus_l	psoas_l	quad_fem_l	gem_l	peri_l	rect_fem_l	vas_med_l	vas_int_l	vas_lat_l	med_gas_l	lat_gas_l	soleus_l	tib_post_l	flex_dig_l	flex_hal_l	tib_ant_l	per_brev_l	per_long_l	per_tert_l	ext_dig_l	ext_hal_l	ercspn_r	ercspn_l	intobl_r	intobl_l	extobl_r	extobl_l	femur_lat_meniscii_r.femur_lat_r.force.X	femur_lat_meniscii_r.femur_lat_r.force.Y	femur_lat_meniscii_r.femur_lat_r.force.Z	femur_lat_meniscii_r.femur_lat_r.torque.X	femur_lat_meniscii_r.femur_lat_r.torque.Y	femur_lat_meniscii_r.femur_lat_r.torque.Z	femur_lat_meniscii_r.meniscus_lat_r.force.X	femur_lat_meniscii_r.meniscus_lat_r.force.Y	femur_lat_meniscii_r.meniscus_lat_r.force.Z	femur_lat_meniscii_r.meniscus_lat_r.torque.X	femur_lat_meniscii_r.meniscus_lat_r.torque.Y	femur_lat_meniscii_r.meniscus_lat_r.torque.Z	femur_med_meniscii_r.femur_med_r.force.X	femur_med_meniscii_r.femur_med_r.force.Y	femur_med_meniscii_r.femur_med_r.force.Z	femur_med_meniscii_r.femur_med_r.torque.X	femur_med_meniscii_r.femur_med_r.torque.Y	femur_med_meniscii_r.femur_med_r.torque.Z	femur_med_meniscii_r.meniscus_med_r.force.X	femur_med_meniscii_r.meniscus_med_r.force.Y	femur_med_meniscii_r.meniscus_med_r.force.Z	femur_med_meniscii_r.meniscus_med_r.torque.X	femur_med_meniscii_r.meniscus_med_r.torque.Y	femur_med_meniscii_r.meniscus_med_r.torque.Z	femur_med_tibia_r.tibia_upper_r.force.X	femur_med_tibia_r.tibia_upper_r.force.Y	femur_med_tibia_r.tibia_upper_r.force.Z	femur_med_tibia_r.tibia_upper_r.torque.X	femur_med_tibia_r.tibia_upper_r.torque.Y	femur_med_tibia_r.tibia_upper_r.torque.Z	femur_med_tibia_r.femur_med_r.force.X	femur_med_tibia_r.femur_med_r.force.Y	femur_med_tibia_r.femur_med_r.force.Z	femur_med_tibia_r.femur_med_r.torque.X	femur_med_tibia_r.femur_med_r.torque.Y	femur_med_tibia_r.femur_med_r.torque.Z	femur_lat_tibia_r.tibia_upper_r.force.X	femur_lat_tibia_r.tibia_upper_r.force.Y	femur_lat_tibia_r.tibia_upper_r.force.Z	femur_lat_tibia_r.tibia_upper_r.torque.X	femur_lat_tibia_r.tibia_upper_r.torque.Y	femur_lat_tibia_r.tibia_upper_r.torque.Z	femur_lat_tibia_r.femur_lat_r.force.X	femur_lat_tibia_r.femur_lat_r.force.Y	femur_lat_tibia_r.femur_lat_r.force.Z	femur_lat_tibia_r.femur_lat_r.torque.X	femur_lat_tibia_r.femur_lat_r.torque.Y	femur_lat_tibia_r.femur_lat_r.torque.Z	aACL_R	pACL_R	aPCL_R	pPCL_R	aMCL_R	mMCL_R	pMCL_R	aLCL_R	mLCL_R	pLCL_R	ground_prescribedForce_fx	ground_prescribedForce_fy	ground_prescribedForce_fz	ground_prescribedForce_px	ground_prescribedForce_py	ground_prescribedForce_pz
      0.00000000	     37.48087652	     28.28714471	     30.25598133	     13.28977762	     14.47626353	     15.91713841	      0.00000000	     14.93394371	     14.72974071	     24.18580536	      7.29249363	     27.93927808	     20.68957741	     14.51222487	     12.16230296	     19.66717628	     11.98515203	     11.16605282	      6.67712316	     18.12681708	     27.55933735	     20.56469162	     63.94906620	     55.74758807	     18.09791099	      9.16719286	     20.03897647	    222.00615091	     78.08105591	    112.09656335	    109.79150584	     10.50275607	      9.82718344	    152.72720615	     92.44658902	     14.93332009	     15.26895791	     41.82851940	     21.62523106	     46.40594865	      8.86060096	     25.04818486	      7.96045570	     37.48087652	     28.28714471	     30.25598133	     13.28977762	     14.47626353	     15.91713841	     42.06683902	     20.39635155	     37.67631238	     36.01822118	      7.59254209	     27.93927808	     20.68957741	     14.51222487	     12.16230296	     19.66717628	     12.58139899	     11.16605282	      7.78214370	     18.12681708	     27.55933735	     20.56469162	     63.94906620	     55.74758807	     18.09791099	      9.16719286	     20.03897647	     52.59637061	     32.48786114	     37.22481259	     39.87514307	     67.71424671	     31.64857027	    152.72720615	     92.44658902	     14.93332009	     15.26895791	     41.82851940	     21.62523106	     46.40594865	      8.86060096	     25.04818486	      7.96045570	    124.99446086	    124.99446086	     44.97041513	     44.97041513	     60.98287244	     60.98287244	     82.06651735	    -20.57321461	      1.32625263	     -0.00932964	      1.90435437	     33.26068052	    -82.06651735	     20.57321461	     -1.32625263	     -0.61873248	     -2.35115890	     -1.32810305	      0.00000000	      0.00000000	      0.00000000	      0.00000000	      0.00000000	      0.00000000	      0.00000000	      0.00000000	      0.00000000	      0.00000000	      0.00000000	      0.00000000	    -48.33423503	     -2.29031819	     23.02314210	     -0.22968375	      1.21075731	     -0.36233992	     48.33423503	      2.29031819	    -23.02314210	      9.35829961	     -0.81929207	     19.56568074	      0.00000000	      0.00000000	      0.00000000	      0.00000000	      0.00000000	      0.00000000	      0.00000000	      0.00000000	      0.00000000	      0.00000000	      0.00000000	      0.00000000	      0.28236793	      5.36419956	   1302.60579461	    811.35279875	     36.06478367	      2.10632205	      0.00000000	      0.00000000	      0.00000000	      0.00000000	      0.00000000	   -110.00000000	      0.00000000	      0.03000000	     -0.03000000	      0.00000000
      0.00100000	     37.47068608	     28.27022932	     30.24086714	     13.26950867	     14.46480712	     15.91260065	      0.00000000	     15.73898650	     15.65951487	     26.61135894	      7.46403031	     27.92554748	     20.64313666	     14.50364319	     12.15716021	     19.66293667	     11.32974940	     11.15324218	      7.13139302	     18.11779344	     27.54583488	     20.55620729	     63.92578024	     55.73415570	     18.08271668	      9.16509816	     20.03713766	    236.23480726	     93.72021325	    132.44633981	    126.28222199	      8.05076236	      8.30142692	    145.62677285	     91.77356611	     14.95970046	     15.22790614	     43.95523165	     21.35516148	     45.99739729	      9.42094786	     25.55814645	      8.15510726	     37.47068608	     28.27022932	     30.24086714	     13.26950867	     14.46480712	     15.91260065	     42.06228881	     20.39020965	     37.67123261	     35.98888344	      7.57882260	     27.92554748	     20.64313666	     14.50364319	     12.15716021	     19.66293667	     12.58033419	     11.15324218	      7.77413879	     18.11779344	     27.54583488	     20.55620729	     63.92578024	     55.73415570	     18.08271668	      9.16509816	     20.03713766	     52.58867645	     32.47668845	     37.21372981	     39.86386325	     67.70976811	     31.64643975	    152.71327822	     92.44307771	     14.93402208	     15.26942871	     41.82127614	     21.62263156	     46.40335095	      8.85785788	     25.04326423	      7.95848292	    124.81723588	    124.81723588	     44.95337082	     44.95337082	     60.96445217	     60.96445217	    143.24725459	    -40.08127443	      0.79215821	      0.67787318	      3.32142078	     58.12266900	   -143.24725459	     40.08127443	     -0.79215821	     -1.19252860	     -4.06137610	     -2.49662821	      0.00000000	      0.00000000	      0.00000000	      0.00000000	      0.00000000	      0.00000000	      0.00000000	      0.00000000	      0.00000000	      0.00000000	      0.00000000	      0.00000000	    -95.14678479	     -1.73292291	     42.73418608	     -0.40710491	      2.28948750	     -0.81472552	     95.14678479	      1.73292291	    -42.73418608	     17.34073275	     -1.58589532	     38.54563051	      0.00000000	      0.00000000	      0.00000000	      0.00000000	      0.00000000	      0.00000000	      0.00000000	      0.00000000	      0.00000000	      0.00000000	      0.00000000	      0.00000000	    -44.96214678	    -57.50845836	   1190.68107227	    563.25268907	   -116.28098200	   -158.53141277	      0.00000000	      0.00000000	      0.00000000	      0.00000000	      0.00000000	   -110.00000000	      0.00000000	      0.03000000	     -0.03000000	      0.00000000
      0.00216463	     37.43346840	     28.21032745	     30.18684068	     13.20387110	     14.42504265	     15.89604719	      0.00000000	     18.07295988	     18.40175267	     33.17916257	      8.05345188	     27.87643302	     20.50307896	     14.47323801	     12.13864586	     19.64737142	      9.78678520	     11.11021001	      8.37831083	     18.08553809	     27.49753323	     20.52563288	     63.84211781	     55.68498279	     18.03013986	      9.15743958	     20.03030711	    261.88590649	    120.10227091	    170.05435574	    167.82383811	      3.26122391	      4.94803319	    127.64839934	     90.04763303	     15.08186912	     15.16317332	     50.07703642	     20.56935633	     44.82611909	     10.96392250	     26.89120003	      8.67011736	     37.43346840	     28.21032745	     30.18684068	     13.20387110	     14.42504265	     15.89604719	     42.04541548	     20.36783742	     37.65244048	     35.88711884	      7.53560956	     27.87643302	     20.50307896	     14.47323801	     12.13864586	     19.64737142	     12.57638019	     11.11021001	      7.74693802	     18.08553809	     27.49753323	     20.52563288	     63.84211781	     55.68498279	     18.03013986	      9.15743958	     20.03030711	     52.56024172	     32.43616731	     37.17335865	     39.82271909	     67.69309191	     31.63850723	    152.66153746	     92.42998384	     14.93655296	     15.27109728	     41.79457479	     21.61299988	     46.39366757	      8.84788135	     25.02518110	      7.95125362	    124.23727936	    124.23727936	     44.89174141	     44.89174141	     60.89813905	     60.89813905	    194.65568573	    -54.78434356	      7.24490164	     -1.56174352	      4.59528169	     79.02709117	   -194.65568573	     54.78434356	     -7.24490164	     -1.58362561	     -5.77449327	     -3.43439443	      0.00000000	      0.00000000	      0.00000000	      0.00000000	      0.00000000	      0.00000000	      0.00000000	      0.00000000	      0.00000000	      0.00000000	      0.00000000	      0.00000000	   -242.11876780	     -0.36390749	    100.32872679	     -0.91820878	      5.58742750	     -2.20040399	    242.11876780	      0.36390749	   -100.32872679	     40.67065069	     -3.99932810	     98.13893008	      0.00000000	      0.00000000	      0.00000000	      0.00000000	      0.00000000	      0.00000000	      0.00000000	      0.00000000	      0.00000000	      0.00000000	      0.00000000	      0.00000000	      0.00000000	    -88.28036626	   1097.16278231	    427.01514698	   -165.79433711	   -210.32637189	      0.00000000	      0.00000000	      0.00000000	      0.00000000	      0.00000000	   -110.00000000	      0.00000000	      0.03000000	     -0.03000000	      0.00000000
      0.00280092	     37.40184383	     28.16080039	     30.14180216	     13.15356017	     14.39273370	     15.88199625	      0.00000000	     19.60787913	     20.28491321	     35.89698553	      8.41206580	     27.83546417	     20.40160307	     14.44808701	     12.12311369	     19.63408295	      8.91266676	     11.07620748	      9.04463960	     18.05864764	     27.45723878	     20.49996097	     63.77205531	     55.64311185	     17.98753368	      9.15092553	     20.02441373	    218.30666569	    123.03756605	    107.47811506	    176.76054966	      1.47669500	      3.26210771	    116.91868355	     89.05430132	     15.20202594	     15.15782276	     54.30075144	     19.98908590	     43.98814119	     11.91487601	     27.71415807	      8.99729574	     37.40184383	     28.16080039	     30.14180216	     13.15356017	     14.39273370	     15.88199625	     42.03087979	     20.34887244	     37.63628672	     35.80447878	      7.50321988	     27.83546417	     20.40160307	     14.44808701	     12.12311369	     19.63408295	     12.57296976	     11.07620748	      7.72523546	     18.05864764	     27.45723878	     20.49996097	     63.77205531	     55.64311185	     17.98753368	      9.15092553	     20.02441373	     52.53582199	     32.40194790	     37.13913307	     39.78779554	     67.67867249	     31.63164869	    152.61689283	     92.41864667	     14.93867126	     15.27246910	     41.77169556	     21.60470889	     46.38528626	      8.83943571	     25.00974062	      7.94509709	    123.78890985	    123.78890985	     44.83984001	     44.83984001	     60.84250556	     60.84250556	    213.45682170	    -58.83540068	     14.08410096	     -4.20440594	      5.12291051	     86.68573665	   -213.45682170	     58.83540068	    -14.08410096	     -1.67053960	     -6.58314005	     -3.74583055	      0.00000000	      0.00000000	      0.00000000	      0.00000000	      0.00000000	      0.00000000	      0.00000000	      0.00000000	      0.00000000	      0.00000000	      0.00000000	      0.00000000	   -353.71317076	      0.10325854	    136.92358561	     -1.24199221	      7.90665696	     -3.21625027	    353.71317076	     -0.10325854	   -136.92358561	     55.50542967	     -5.81884036	    143.39280824	      0.00000000	      0.00000000	      0.00000000	      0.00000000	      0.00000000	      0.00000000	      0.00000000	      0.00000000	      0.00000000	      0.00000000	      0.00000000	      0.00000000	      0.00000000	    -96.91520737	   1062.53286222	    401.71348116	   -157.81489802	   -201.16642244	      0.00000000	      0.00000000	      0.00000000	      0.00000000	      0.00000000	   -110.00000000	      0.00000000	      0.03000000	     -0.03000000	      0.00000000
